<svg width="1290" height="359" viewBox="0 0 1290 359" fill="none" xmlns="http://www.w3.org/2000/svg">
<path d="M-679.432 359L-697.01 292.105H-812.977L-831.043 359H-937L-820.545 0.601562H-691.883L-573.963 359H-679.432ZM-717.029 213.004L-732.41 154.41C-734.038 148.062 -736.398 139.029 -739.49 127.311C-742.583 115.429 -745.675 103.222 -748.768 90.6895C-751.697 77.9941 -753.976 67.5775 -755.604 59.4395C-757.068 67.5775 -759.184 77.6686 -761.951 89.7129C-764.555 101.594 -767.322 113.395 -770.252 125.113C-773.019 136.832 -775.46 146.598 -777.576 154.41L-792.957 213.004H-717.029ZM-470.145 359V2.06641H-373.709V281.119H-236.258V359H-470.145ZM104.865 359L87.2871 292.105H-28.6797L-46.7461 359H-152.703L-36.248 0.601562H92.4141L210.334 359H104.865ZM67.2676 213.004L51.8867 154.41C50.2591 148.062 47.8991 139.029 44.8066 127.311C41.7142 115.429 38.6217 103.222 35.5293 90.6895C32.5996 77.9941 30.321 67.5775 28.6934 59.4395C27.2285 67.5775 25.1126 77.6686 22.3457 89.7129C19.7415 101.594 16.9746 113.395 14.0449 125.113C11.278 136.832 8.83659 146.598 6.7207 154.41L-8.66016 213.004H67.2676ZM314.152 2.06641H438.664C490.259 2.06641 527.043 9.71615 549.016 25.0156C570.988 40.3151 581.975 62.2878 581.975 90.9336C581.975 106.559 579.126 119.824 573.43 130.729C567.896 141.633 560.816 150.26 552.189 156.607C543.726 162.955 535.018 167.268 526.066 169.547V171.988C535.832 174.43 545.516 178.499 555.119 184.195C564.885 189.729 572.941 198.111 579.289 209.342C585.799 220.41 589.055 235.465 589.055 254.508C589.055 276.155 583.521 294.791 572.453 310.416C561.548 326.041 545.923 338.085 525.578 346.549C505.233 354.85 481.063 359 453.068 359H314.152V2.06641ZM410.588 139.029H439.641C455.591 139.029 466.822 135.774 473.332 129.264C479.842 122.59 483.098 114.534 483.098 105.094C483.098 95.3281 479.354 87.9225 471.867 82.877C464.543 77.6686 453.15 75.0645 437.688 75.0645H410.588V139.029ZM410.588 209.586V284.537H444.523C461.288 284.537 473.007 280.956 479.68 273.795C486.353 266.471 489.689 257.356 489.689 246.451C489.689 240.104 488.225 234.163 485.295 228.629C482.528 222.932 477.727 218.375 470.891 214.957C464.055 211.376 454.615 209.586 442.57 209.586H410.588ZM927.98 359H716.066V2.06641H927.98V79.459H812.502V135.611H919.436V213.004H812.502V280.387H927.98V359ZM1055.48 359V2.06641H1151.92V281.119H1289.37V359H1055.48Z" fill="#888787" fill-opacity="0.09"/>
</svg>
